<svg xmlns="http://www.w3.org/2000/svg" viewBox="0 0 720 720" role="img" aria-label="Full stack software development workspace illustration">
  <defs>
    <linearGradient id="bg" x1="0" y1="0" x2="1" y2="1">
      <stop offset="0" stop-color="#fff7f5"/>
      <stop offset="0.55" stop-color="#f4e7e5"/>
      <stop offset="1" stop-color="#2b1115"/>
    </linearGradient>
    <linearGradient id="accent" x1="0" y1="0" x2="1" y2="1">
      <stop offset="0" stop-color="#c97078"/>
      <stop offset="1" stop-color="#642530"/>
    </linearGradient>
    <filter id="shadow" x="-20%" y="-20%" width="140%" height="140%">
      <feDropShadow dx="0" dy="24" stdDeviation="26" flood-color="#2b1115" flood-opacity="0.22"/>
    </filter>
  </defs>
  <rect width="720" height="720" fill="url(#bg)"/>
  <circle cx="596" cy="108" r="92" fill="#ffffff" opacity="0.24"/>
  <circle cx="112" cy="616" r="130" fill="#ffffff" opacity="0.18"/>
  <g filter="url(#shadow)">
    <rect x="92" y="116" width="536" height="356" rx="28" fill="#181112"/>
    <rect x="116" y="146" width="488" height="286" rx="16" fill="#24191b"/>
    <rect x="116" y="146" width="488" height="46" rx="16" fill="#342124"/>
    <circle cx="146" cy="169" r="7" fill="#c97078"/>
    <circle cx="170" cy="169" r="7" fill="#e0b2a9"/>
    <circle cx="194" cy="169" r="7" fill="#7f3941"/>
    <rect x="146" y="222" width="180" height="18" rx="9" fill="#f8f4f2" opacity="0.9"/>
    <rect x="146" y="260" width="236" height="12" rx="6" fill="#c97078"/>
    <rect x="146" y="292" width="196" height="12" rx="6" fill="#e0b2a9" opacity="0.8"/>
    <rect x="146" y="324" width="266" height="12" rx="6" fill="#8a454d"/>
    <rect x="432" y="222" width="120" height="120" rx="22" fill="url(#accent)"/>
    <path d="M466 284h52M492 258v52" stroke="#fff7f5" stroke-width="12" stroke-linecap="round"/>
    <rect x="432" y="368" width="120" height="28" rx="14" fill="#fff7f5" opacity="0.9"/>
  </g>
  <g filter="url(#shadow)">
    <rect x="136" y="500" width="142" height="92" rx="20" fill="#fffaf8"/>
    <path d="M166 548h82M166 525h48" stroke="#642530" stroke-width="10" stroke-linecap="round"/>
    <circle cx="246" cy="525" r="12" fill="#c97078"/>
  </g>
  <g filter="url(#shadow)">
    <rect x="300" y="500" width="142" height="92" rx="20" fill="#fffaf8"/>
    <path d="M332 566c18-28 40-28 58 0" fill="none" stroke="#642530" stroke-width="10" stroke-linecap="round"/>
    <path d="M324 534h94" stroke="#c97078" stroke-width="10" stroke-linecap="round"/>
  </g>
  <g filter="url(#shadow)">
    <rect x="464" y="500" width="142" height="92" rx="20" fill="#fffaf8"/>
    <ellipse cx="535" cy="527" rx="38" ry="12" fill="none" stroke="#642530" stroke-width="8"/>
    <path d="M497 527v34c0 7 17 13 38 13s38-6 38-13v-34" fill="none" stroke="#642530" stroke-width="8"/>
    <path d="M497 544c0 7 17 13 38 13s38-6 38-13" fill="none" stroke="#c97078" stroke-width="8"/>
  </g>
</svg>
