<svg xmlns="http://www.w3.org/2000/svg" viewBox="0 0 640 360" role="img" aria-label="Scrum poker estimation cards preview">
  <defs>
    <linearGradient id="bg" x1="0" y1="0" x2="1" y2="1">
      <stop offset="0" stop-color="#fff8f5"/>
      <stop offset="1" stop-color="#2b1115"/>
    </linearGradient>
    <filter id="shadow" x="-20%" y="-20%" width="140%" height="140%">
      <feDropShadow dx="0" dy="14" stdDeviation="18" flood-color="#2b1115" flood-opacity="0.2"/>
    </filter>
  </defs>
  <rect width="640" height="360" fill="url(#bg)"/>
  <g filter="url(#shadow)">
    <rect x="84" y="62" width="472" height="236" rx="24" fill="#fffaf8"/>
    <path d="M124 104h156M124 132h96" stroke="#2b1115" stroke-width="11" stroke-linecap="round"/>
    <rect x="126" y="176" width="78" height="92" rx="14" fill="#2b1115"/>
    <rect x="226" y="154" width="82" height="114" rx="14" fill="#f0ba42"/>
    <rect x="330" y="176" width="78" height="92" rx="14" fill="#c97078"/>
    <rect x="430" y="154" width="82" height="114" rx="14" fill="#2b1115"/>
    <path d="M153 224h24M253 211h28M358 224h22M456 211h30" stroke="#fff8f6" stroke-width="9" stroke-linecap="round"/>
    <path d="M266 198v34M469 198v34" stroke="#fff8f6" stroke-width="9" stroke-linecap="round"/>
    <circle cx="500" cy="104" r="18" fill="#f0ba42"/>
    <path d="M444 104h28" stroke="#c97078" stroke-width="10" stroke-linecap="round"/>
  </g>
</svg>
