<svg xmlns="http://www.w3.org/2000/svg" viewBox="0 0 640 360" role="img" aria-label="E-commerce storefront preview">
  <defs>
    <linearGradient id="bg" x1="0" y1="0" x2="1" y2="1">
      <stop offset="0" stop-color="#fdf5f2"/>
      <stop offset="1" stop-color="#3a171d"/>
    </linearGradient>
    <filter id="shadow" x="-20%" y="-20%" width="140%" height="140%">
      <feDropShadow dx="0" dy="14" stdDeviation="18" flood-color="#2b1115" flood-opacity="0.18"/>
    </filter>
  </defs>
  <rect width="640" height="360" fill="url(#bg)"/>
  <g filter="url(#shadow)">
    <rect x="76" y="58" width="488" height="244" rx="24" fill="#fffaf8"/>
    <rect x="76" y="58" width="488" height="54" rx="24" fill="#2b1115"/>
    <path d="M118 86h72M418 86h34M472 86h34" stroke="#fff8f6" stroke-width="9" stroke-linecap="round" opacity="0.75"/>
    <rect x="116" y="144" width="154" height="118" rx="18" fill="#f1dedb"/>
    <rect x="296" y="144" width="96" height="118" rx="18" fill="#f1dedb"/>
    <rect x="418" y="144" width="96" height="118" rx="18" fill="#f1dedb"/>
    <path d="M144 198h98M144 224h66" stroke="#642530" stroke-width="10" stroke-linecap="round"/>
    <circle cx="212" cy="172" r="18" fill="#c97078"/>
    <path d="M318 202h52M318 228h34M440 202h52M440 228h34" stroke="#642530" stroke-width="9" stroke-linecap="round"/>
    <path d="M454 172h26l8 24h-42l8-24z" fill="#c97078"/>
    <path d="M330 178h48" stroke="#c97078" stroke-width="13" stroke-linecap="round"/>
  </g>
</svg>
