<svg xmlns="http://www.w3.org/2000/svg" viewBox="0 0 640 360" role="img" aria-label="Lown payment dashboard preview">
  <defs>
    <linearGradient id="bg" x1="0" y1="0" x2="1" y2="1">
      <stop offset="0" stop-color="#fff8f6"/>
      <stop offset="1" stop-color="#2b1115"/>
    </linearGradient>
    <filter id="shadow" x="-20%" y="-20%" width="140%" height="140%">
      <feDropShadow dx="0" dy="14" stdDeviation="18" flood-color="#2b1115" flood-opacity="0.2"/>
    </filter>
  </defs>
  <rect width="640" height="360" fill="url(#bg)"/>
  <circle cx="554" cy="78" r="74" fill="#ffffff" opacity="0.18"/>
  <g filter="url(#shadow)">
    <rect x="62" y="54" width="516" height="252" rx="24" fill="#fffaf8"/>
    <rect x="62" y="54" width="132" height="252" rx="24" fill="#2b1115"/>
    <path d="M96 96h62M96 132h42M96 168h70M96 204h52" stroke="#fff8f6" stroke-width="10" stroke-linecap="round" opacity="0.72"/>
    <rect x="228" y="92" width="130" height="72" rx="18" fill="#f2dfdc"/>
    <rect x="382" y="92" width="130" height="72" rx="18" fill="#f2dfdc"/>
    <path d="M252 128h54M252 146h82" stroke="#642530" stroke-width="8" stroke-linecap="round"/>
    <path d="M406 128h54M406 146h72" stroke="#642530" stroke-width="8" stroke-linecap="round"/>
    <rect x="228" y="194" width="284" height="66" rx="18" fill="#2b1115"/>
    <path d="M258 236c26-38 56-10 82-34 28-26 55 12 86-28 18-22 32-10 50-30" fill="none" stroke="#c97078" stroke-width="10" stroke-linecap="round"/>
    <circle cx="258" cy="236" r="7" fill="#fff8f6"/>
    <circle cx="340" cy="202" r="7" fill="#fff8f6"/>
    <circle cx="426" cy="174" r="7" fill="#fff8f6"/>
    <circle cx="476" cy="144" r="7" fill="#fff8f6"/>
  </g>
</svg>
