<svg xmlns="http://www.w3.org/2000/svg" viewBox="0 0 640 360" role="img" aria-label="Research visualisation network preview">
  <defs>
    <linearGradient id="bg" x1="0" y1="0" x2="1" y2="1">
      <stop offset="0" stop-color="#fff8f5"/>
      <stop offset="1" stop-color="#2b1115"/>
    </linearGradient>
    <filter id="shadow" x="-20%" y="-20%" width="140%" height="140%">
      <feDropShadow dx="0" dy="14" stdDeviation="18" flood-color="#2b1115" flood-opacity="0.2"/>
    </filter>
  </defs>
  <rect width="640" height="360" fill="url(#bg)"/>
  <g filter="url(#shadow)">
    <rect x="74" y="52" width="492" height="256" rx="24" fill="#fffaf8"/>
    <rect x="102" y="84" width="118" height="192" rx="18" fill="#2b1115"/>
    <path d="M128 124h60M128 160h42M128 196h70M128 232h52" stroke="#fff8f6" stroke-width="9" stroke-linecap="round" opacity="0.7"/>
    <path d="M300 168 386 120 468 172 426 246 326 242Z" fill="none" stroke="#642530" stroke-width="8" stroke-linecap="round"/>
    <path d="M386 120 426 246M300 168l126 78M468 172l-142 70" stroke="#c97078" stroke-width="6" stroke-linecap="round" opacity="0.65"/>
    <circle cx="300" cy="168" r="24" fill="#f0ba42"/>
    <circle cx="386" cy="120" r="22" fill="#c97078"/>
    <circle cx="468" cy="172" r="28" fill="#2b1115"/>
    <circle cx="426" cy="246" r="24" fill="#f0ba42"/>
    <circle cx="326" cy="242" r="18" fill="#c97078"/>
  </g>
</svg>
